<?xml version="1.0" encoding="UTF-8" standalone="no"?>
<!-- Created with Inkscape (http://www.inkscape.org/) -->

<svg
   xmlns:dc="http://purl.org/dc/elements/1.1/"
   xmlns:cc="http://creativecommons.org/ns#"
   xmlns:rdf="http://www.w3.org/1999/02/22-rdf-syntax-ns#"
   xmlns:svg="http://www.w3.org/2000/svg"
   xmlns="http://www.w3.org/2000/svg"
   xmlns:sodipodi="http://sodipodi.sourceforge.net/DTD/sodipodi-0.dtd"
   xmlns:inkscape="http://www.inkscape.org/namespaces/inkscape"
   width="442.67767"
   height="202.6098"
   id="svg2"
   version="1.1"
   inkscape:version="0.48.4 r9939"
   sodipodi:docname="New document 1">
  <sodipodi:namedview
     id="base"
     pagecolor="#ffffff"
     bordercolor="#666666"
     borderopacity="1.0"
     inkscape:pageopacity="0.0"
     inkscape:pageshadow="2"
     inkscape:zoom="1.979899"
     inkscape:cx="238.09099"
     inkscape:cy="52.604739"
     inkscape:document-units="px"
     inkscape:current-layer="layer1"
     showgrid="false"
     inkscape:window-width="1920"
     inkscape:window-height="1028"
     inkscape:window-x="0"
     inkscape:window-y="22"
     inkscape:window-maximized="1"
     fit-margin-top="0"
     fit-margin-left="0"
     fit-margin-right="0"
     fit-margin-bottom="0" />
  <defs
     id="defs4" />
  <metadata
     id="metadata7">
    <rdf:RDF>
      <cc:Work
         rdf:about="">
        <dc:format>image/svg+xml</dc:format>
        <dc:type
           rdf:resource="http://purl.org/dc/dcmitype/StillImage" />
        <dc:title></dc:title>
      </cc:Work>
    </rdf:RDF>
  </metadata>
  <g
     transform="translate(-54.154312,-693.37882)"
     id="layer1"
     inkscape:groupmode="layer"
     inkscape:label="Layer 1">
    <rect
       ry="15.078585"
       y="716.55402"
       x="88.632729"
       height="30.157169"
       width="53.776772"
       id="rect3980"
       style="fill:#ffffff;fill-opacity:1;stroke:#000000;stroke-width:0.59048998;stroke-miterlimit:4;stroke-opacity:1;stroke-dasharray:none;stroke-dashoffset:0" />
    <rect
       ry="15.078585"
       y="716.32495"
       x="160.22964"
       height="30.157169"
       width="53.776772"
       id="rect3980-9"
       style="fill:#ffffff;fill-opacity:1;stroke:#000000;stroke-width:0.59048998;stroke-miterlimit:4;stroke-opacity:1;stroke-dasharray:none;stroke-dashoffset:0" />
    <path
       transform="matrix(0.59049,0,0,0.59049,64.591346,650.18027)"
       d="m 71.72083,137.18677 c 0,4.74208 -3.844216,8.58629 -8.586297,8.58629 -4.742081,0 -8.586297,-3.84421 -8.586297,-8.58629 0,-4.74208 3.844216,-8.5863 8.586297,-8.5863 4.742081,0 8.586297,3.84422 8.586297,8.5863 z"
       sodipodi:ry="8.586297"
       sodipodi:rx="8.586297"
       sodipodi:cy="137.18677"
       sodipodi:cx="63.134533"
       id="path3192"
       style="fill:#000000;fill-opacity:1;stroke:none"
       sodipodi:type="arc" />
    <rect
       ry="15.078585"
       y="716.22363"
       x="229.1653"
       height="30.157169"
       width="53.776772"
       id="rect3980-2"
       style="fill:#ffffff;fill-opacity:1;stroke:#000000;stroke-width:0.59048998;stroke-miterlimit:4;stroke-opacity:1;stroke-dasharray:none;stroke-dashoffset:0" />
    <rect
       ry="15.078585"
       y="715.99463"
       x="300.76218"
       height="30.157169"
       width="53.776772"
       id="rect3980-9-1"
       style="fill:#ffffff;fill-opacity:1;stroke:#000000;stroke-width:0.59048998;stroke-miterlimit:4;stroke-opacity:1;stroke-dasharray:none;stroke-dashoffset:0" />
    <rect
       ry="15.078585"
       y="716.849"
       x="370.61832"
       height="30.157169"
       width="53.776772"
       id="rect3980-5"
       style="fill:#ffffff;fill-opacity:1;stroke:#000000;stroke-width:0.59048998;stroke-miterlimit:4;stroke-opacity:1;stroke-dasharray:none;stroke-dashoffset:0" />
    <rect
       ry="15.078585"
       y="716.61993"
       x="442.21521"
       height="30.157169"
       width="53.776772"
       id="rect3980-9-9"
       style="fill:#ffffff;fill-opacity:1;stroke:#000000;stroke-width:0.59048998;stroke-miterlimit:4;stroke-opacity:1;stroke-dasharray:none;stroke-dashoffset:0" />
    <path
       style="fill:none;stroke:#000000;stroke-width:1px;stroke-linecap:butt;stroke-linejoin:miter;stroke-opacity:1"
       d="m 101.52033,50.818732 380.82751,0"
       id="path4697"
       inkscape:connector-curvature="0"
       transform="translate(0,680.31491)" />
    <path
       d="m 71.72083,137.18677 c 0,4.74208 -3.844216,8.58629 -8.586297,8.58629 -4.742081,0 -8.586297,-3.84421 -8.586297,-8.58629 0,-4.74208 3.844216,-8.5863 8.586297,-8.5863 4.742081,0 8.586297,3.84422 8.586297,8.5863 z"
       sodipodi:ry="8.586297"
       sodipodi:rx="8.586297"
       sodipodi:cy="137.18677"
       sodipodi:cx="63.134533"
       id="path3192-4"
       style="fill:#ffffff;fill-opacity:1;stroke:#000000;stroke-opacity:1"
       sodipodi:type="arc"
       transform="matrix(0.59049,0,0,0.59049,90.785516,650.32719)" />
    <path
       d="m 71.72083,137.18677 c 0,4.74208 -3.844216,8.58629 -8.586297,8.58629 -4.742081,0 -8.586297,-3.84421 -8.586297,-8.58629 0,-4.74208 3.844216,-8.5863 8.586297,-8.5863 4.742081,0 8.586297,3.84422 8.586297,8.5863 z"
       sodipodi:ry="8.586297"
       sodipodi:rx="8.586297"
       sodipodi:cy="137.18677"
       sodipodi:cx="63.134533"
       id="path3192-3"
       style="fill:#000000;fill-opacity:1;stroke:none"
       sodipodi:type="arc"
       transform="matrix(0.59049,0,0,0.59049,136.18827,649.9513)" />
    <path
       d="m 71.72083,137.18677 c 0,4.74208 -3.844216,8.58629 -8.586297,8.58629 -4.742081,0 -8.586297,-3.84421 -8.586297,-8.58629 0,-4.74208 3.844216,-8.5863 8.586297,-8.5863 4.742081,0 8.586297,3.84422 8.586297,8.5863 z"
       sodipodi:ry="8.586297"
       sodipodi:rx="8.586297"
       sodipodi:cy="137.18677"
       sodipodi:cx="63.134533"
       id="path3192-4-7"
       style="fill:#ffffff;fill-opacity:1;stroke:#000000;stroke-opacity:1"
       sodipodi:type="arc"
       transform="matrix(0.59049,0,0,0.59049,162.38244,650.09822)" />
    <path
       d="m 71.72083,137.18677 c 0,4.74208 -3.844216,8.58629 -8.586297,8.58629 -4.742081,0 -8.586297,-3.84421 -8.586297,-8.58629 0,-4.74208 3.844216,-8.5863 8.586297,-8.5863 4.742081,0 8.586297,3.84422 8.586297,8.5863 z"
       sodipodi:ry="8.586297"
       sodipodi:rx="8.586297"
       sodipodi:cy="137.18677"
       sodipodi:cx="63.134533"
       id="path3192-5"
       style="fill:#000000;fill-opacity:1;stroke:none"
       sodipodi:type="arc"
       transform="matrix(0.59049,0,0,0.59049,205.12391,649.84992)" />
    <path
       d="m 71.72083,137.18677 c 0,4.74208 -3.844216,8.58629 -8.586297,8.58629 -4.742081,0 -8.586297,-3.84421 -8.586297,-8.58629 0,-4.74208 3.844216,-8.5863 8.586297,-8.5863 4.742081,0 8.586297,3.84422 8.586297,8.5863 z"
       sodipodi:ry="8.586297"
       sodipodi:rx="8.586297"
       sodipodi:cy="137.18677"
       sodipodi:cx="63.134533"
       id="path3192-4-8"
       style="fill:#ffffff;fill-opacity:1;stroke:#000000;stroke-opacity:1"
       sodipodi:type="arc"
       transform="matrix(0.59049,0,0,0.59049,231.31808,649.99686)" />
    <path
       d="m 71.72083,137.18677 c 0,4.74208 -3.844216,8.58629 -8.586297,8.58629 -4.742081,0 -8.586297,-3.84421 -8.586297,-8.58629 0,-4.74208 3.844216,-8.5863 8.586297,-8.5863 4.742081,0 8.586297,3.84422 8.586297,8.5863 z"
       sodipodi:ry="8.586297"
       sodipodi:rx="8.586297"
       sodipodi:cy="137.18677"
       sodipodi:cx="63.134533"
       id="path3192-3-1"
       style="fill:#000000;fill-opacity:1;stroke:none"
       sodipodi:type="arc"
       transform="matrix(0.59049,0,0,0.59049,276.72082,649.62096)" />
    <path
       d="m 71.72083,137.18677 c 0,4.74208 -3.844216,8.58629 -8.586297,8.58629 -4.742081,0 -8.586297,-3.84421 -8.586297,-8.58629 0,-4.74208 3.844216,-8.5863 8.586297,-8.5863 4.742081,0 8.586297,3.84422 8.586297,8.5863 z"
       sodipodi:ry="8.586297"
       sodipodi:rx="8.586297"
       sodipodi:cy="137.18677"
       sodipodi:cx="63.134533"
       id="path3192-4-7-1"
       style="fill:#ffffff;fill-opacity:1;stroke:#000000;stroke-opacity:1"
       sodipodi:type="arc"
       transform="matrix(0.59049,0,0,0.59049,302.915,649.7679)" />
    <path
       transform="matrix(0.59049,0,0,0.59049,346.57693,650.47526)"
       d="m 71.72083,137.18677 c 0,4.74208 -3.844216,8.58629 -8.586297,8.58629 -4.742081,0 -8.586297,-3.84421 -8.586297,-8.58629 0,-4.74208 3.844216,-8.5863 8.586297,-8.5863 4.742081,0 8.586297,3.84422 8.586297,8.5863 z"
       sodipodi:ry="8.586297"
       sodipodi:rx="8.586297"
       sodipodi:cy="137.18677"
       sodipodi:cx="63.134533"
       id="path3192-8"
       style="fill:#000000;fill-opacity:1;stroke:none"
       sodipodi:type="arc" />
    <path
       d="m 71.72083,137.18677 c 0,4.74208 -3.844216,8.58629 -8.586297,8.58629 -4.742081,0 -8.586297,-3.84421 -8.586297,-8.58629 0,-4.74208 3.844216,-8.5863 8.586297,-8.5863 4.742081,0 8.586297,3.84422 8.586297,8.5863 z"
       sodipodi:ry="8.586297"
       sodipodi:rx="8.586297"
       sodipodi:cy="137.18677"
       sodipodi:cx="63.134533"
       id="path3192-4-73"
       style="fill:#ffffff;fill-opacity:1;stroke:#000000;stroke-opacity:1"
       sodipodi:type="arc"
       transform="matrix(0.59049,0,0,0.59049,372.7711,650.62218)" />
    <path
       d="m 71.72083,137.18677 c 0,4.74208 -3.844216,8.58629 -8.586297,8.58629 -4.742081,0 -8.586297,-3.84421 -8.586297,-8.58629 0,-4.74208 3.844216,-8.5863 8.586297,-8.5863 4.742081,0 8.586297,3.84422 8.586297,8.5863 z"
       sodipodi:ry="8.586297"
       sodipodi:rx="8.586297"
       sodipodi:cy="137.18677"
       sodipodi:cx="63.134533"
       id="path3192-3-4"
       style="fill:#000000;fill-opacity:1;stroke:none"
       sodipodi:type="arc"
       transform="matrix(0.59049,0,0,0.59049,418.17385,650.24629)" />
    <path
       d="m 71.72083,137.18677 c 0,4.74208 -3.844216,8.58629 -8.586297,8.58629 -4.742081,0 -8.586297,-3.84421 -8.586297,-8.58629 0,-4.74208 3.844216,-8.5863 8.586297,-8.5863 4.742081,0 8.586297,3.84422 8.586297,8.5863 z"
       sodipodi:ry="8.586297"
       sodipodi:rx="8.586297"
       sodipodi:cy="137.18677"
       sodipodi:cx="63.134533"
       id="path3192-4-7-9"
       style="fill:#ffffff;fill-opacity:1;stroke:#000000;stroke-opacity:1"
       sodipodi:type="arc"
       transform="matrix(0.59049,0,0,0.59049,444.36802,650.39321)" />
    <g
       id="g4116"
       transform="translate(-59.957947,527.66368)">
      <g
         word-spacing="normal"
         letter-spacing="normal"
         font-size-adjust="none"
         font-stretch="normal"
         font-weight="normal"
         font-variant="normal"
         font-style="normal"
         stroke-miterlimit="10.433"
         xml:space="preserve"
         transform="matrix(0.53149606,0,0,-0.53149606,-93.01181,393.30707)"
         id="content"
         style="font-style:normal;font-variant:normal;font-weight:normal;font-stretch:normal;letter-spacing:normal;word-spacing:normal;text-anchor:start;fill:none;stroke:#000000;stroke-linecap:butt;stroke-linejoin:miter;stroke-miterlimit:10.43299961;stroke-opacity:1;stroke-dasharray:none;stroke-dashoffset:0"><path
           id="path4119"
           d="m 457.57,418.86 0.09,0.26 0.1,0.26 0.1,0.24 0.11,0.25 0.11,0.23 0.12,0.22 0.12,0.22 0.12,0.21 0.13,0.2 0.13,0.2 0.13,0.19 0.14,0.18 0.28,0.34 0.29,0.32 0.3,0.29 0.31,0.27 0.31,0.24 0.32,0.22 0.32,0.21 0.32,0.18 0.31,0.16 0.32,0.15 0.31,0.13 0.3,0.11 0.3,0.1 0.29,0.08 0.28,0.07 0.27,0.06 0.25,0.05 0.24,0.04 0.22,0.03 0.21,0.02 0.19,0.02 0.16,0.01 0.14,0.01 0.12,0.01 0.09,0 0.07,0 c 7.51,0 8.06,-8.72 8.06,-12.66 0,-3.05 -0.25,-3.89 -0.59,-4.89 -1.1,-3.63 -2.6,-9.41 -2.6,-10.7 0,-0.55 0.25,-0.91 0.66,-0.91 0.64,0 1.05,1.11 1.59,3 1.14,4.19 1.64,7.02 1.85,8.56 0.09,0.66 0.18,1.3 0.39,1.96 1.59,4.92 4.78,12.34 6.78,16.28 0.34,0.59 0.94,1.7 0.94,1.89 0,0.5 -0.49,0.5 -0.6,0.5 -0.14,0 -0.45,0 -0.59,-0.35 -2.59,-4.73 -4.58,-9.71 -6.58,-14.75 -0.05,1.55 -0.09,5.33 -2.05,10.18 -1.18,3.03 -3.18,5.46 -6.62,5.46 -6.22,0 -9.72,-7.56 -9.72,-9.1 0,-0.5 0.45,-0.5 0.95,-0.5 z"
           inkscape:connector-curvature="0"
           style="fill:#000000;stroke-width:0" /><path
           id="path4121"
           d="m 492.99,420.92 0,0.04 0,0.04 0,0.05 0,0.04 0,0.03 0,0.04 0,0.04 0,0.03 0,0.04 -0.01,0.03 0,0.03 0,0.03 0,0.03 -0.01,0.03 0,0.03 0,0.02 -0.01,0.03 0,0.02 -0.01,0.03 0,0.02 -0.01,0.04 -0.02,0.04 -0.02,0.03 -0.02,0.03 -0.02,0.03 -0.02,0.03 -0.03,0.02 -0.03,0.02 -0.03,0.02 -0.04,0.01 -0.04,0.01 -0.05,0.02 -0.02,0 -0.02,0 -0.03,0.01 -0.03,0 -0.02,0.01 -0.03,0 -0.03,0 -0.03,0 -0.03,0 -0.04,0.01 -0.03,0 -0.04,0 -0.03,0 -0.04,0 -0.04,0 -0.04,0 -0.04,0 -0.05,0 -0.04,0 -0.04,0 c -2.24,-2.2 -5.4,-2.23 -6.83,-2.23 v -1.25 c 0.84,0 3.14,0 5.04,0.97 v -17.77 c 0,-1.16 0,-1.61 -3.48,-1.61 h -1.31 v -1.25 c 0.62,0.03 4.9,0.14 6.2,0.14 1.08,0 5.47,-0.11 6.23,-0.14 v 1.25 h -1.32 c -3.49,0 -3.49,0.45 -3.49,1.61 z"
           inkscape:connector-curvature="0"
           style="fill:#000000;stroke-width:0" /></g>    </g>
    <g
       id="g4181"
       transform="translate(-32.100804,528.37796)">
      <g
         id="g4183"
         transform="matrix(0.53149606,0,0,-0.53149606,-93.01181,393.30707)"
         xml:space="preserve"
         stroke-miterlimit="10.433"
         font-style="normal"
         font-variant="normal"
         font-weight="normal"
         font-stretch="normal"
         font-size-adjust="none"
         letter-spacing="normal"
         word-spacing="normal"
         style="font-style:normal;font-variant:normal;font-weight:normal;font-stretch:normal;letter-spacing:normal;word-spacing:normal;text-anchor:start;fill:none;stroke:#000000;stroke-linecap:butt;stroke-linejoin:miter;stroke-miterlimit:10.43299961;stroke-opacity:1;stroke-dasharray:none;stroke-dashoffset:0"><path
           d="m 457.57,418.86 0.09,0.26 0.1,0.26 0.1,0.24 0.11,0.25 0.11,0.23 0.12,0.22 0.12,0.22 0.12,0.21 0.13,0.2 0.13,0.2 0.13,0.19 0.14,0.18 0.28,0.34 0.29,0.32 0.3,0.29 0.31,0.27 0.31,0.24 0.32,0.22 0.32,0.21 0.32,0.18 0.31,0.16 0.32,0.15 0.31,0.13 0.3,0.11 0.3,0.1 0.29,0.08 0.28,0.07 0.27,0.06 0.25,0.05 0.24,0.04 0.22,0.03 0.21,0.02 0.19,0.02 0.16,0.01 0.14,0.01 0.12,0.01 0.09,0 0.07,0 c 7.51,0 8.06,-8.72 8.06,-12.66 0,-3.05 -0.25,-3.89 -0.59,-4.89 -1.1,-3.63 -2.6,-9.41 -2.6,-10.7 0,-0.55 0.25,-0.91 0.66,-0.91 0.64,0 1.05,1.11 1.59,3 1.14,4.19 1.64,7.02 1.85,8.56 0.09,0.66 0.18,1.3 0.39,1.96 1.59,4.92 4.78,12.34 6.78,16.28 0.34,0.59 0.94,1.7 0.94,1.89 0,0.5 -0.49,0.5 -0.6,0.5 -0.14,0 -0.45,0 -0.59,-0.35 -2.59,-4.73 -4.58,-9.71 -6.58,-14.75 -0.05,1.55 -0.09,5.33 -2.05,10.18 -1.18,3.03 -3.18,5.46 -6.62,5.46 -6.22,0 -9.72,-7.56 -9.72,-9.1 0,-0.5 0.45,-0.5 0.95,-0.5 z"
           id="path4185"
           inkscape:connector-curvature="0"
           style="fill:#000000;stroke-width:0" /><path
           d="m 498.91,405.11 h -1.18 c -0.1,-0.77 -0.46,-2.83 -0.91,-3.18 -0.27,-0.2 -2.95,-0.2 -3.44,-0.2 h -6.42 c 3.66,3.23 4.88,4.2 6.97,5.84 2.58,2.07 4.98,4.22 4.98,7.54 0,4.21 -3.68,6.79 -8.15,6.79 -4.31,0 -7.25,-3.03 -7.25,-6.23 0,-1.78 1.5,-1.96 1.86,-1.96 0.83,0 1.84,0.6 1.84,1.85 0,0.62 -0.25,1.84 -2.06,1.84 1.08,2.47 3.45,3.24 5.09,3.24 3.49,0 5.3,-2.71 5.3,-5.53 0,-3.04 -2.16,-5.44 -3.28,-6.69 l -8.39,-8.3 c -0.36,-0.31 -0.36,-0.39 -0.36,-1.36 h 14.36 z"
           id="path4187"
           inkscape:connector-curvature="0"
           style="fill:#000000;stroke-width:0" /></g>    </g>
    <g
       id="g4255"
       transform="translate(-94.600806,713.14337)">
      <g
         word-spacing="normal"
         letter-spacing="normal"
         font-size-adjust="none"
         font-stretch="normal"
         font-weight="normal"
         font-variant="normal"
         font-style="normal"
         stroke-miterlimit="10.433"
         xml:space="preserve"
         transform="matrix(0.53149606,0,0,-0.53149606,-93.01181,393.30707)"
         id="g4257"
         style="font-style:normal;font-variant:normal;font-weight:normal;font-stretch:normal;letter-spacing:normal;word-spacing:normal;text-anchor:start;fill:none;stroke:#000000;stroke-linecap:butt;stroke-linejoin:miter;stroke-miterlimit:10.43299961;stroke-opacity:1;stroke-dasharray:none;stroke-dashoffset:0"><path
           id="path4259"
           d="m 475.3,437.34 0,0.09 -0.01,0.08 -0.01,0.09 -0.01,0.09 -0.02,0.08 -0.02,0.08 -0.03,0.09 -0.03,0.08 -0.03,0.07 -0.04,0.08 -0.04,0.08 -0.04,0.07 -0.05,0.07 -0.05,0.07 -0.06,0.07 -0.06,0.06 -0.06,0.06 -0.07,0.06 -0.07,0.05 -0.07,0.06 -0.08,0.04 -0.07,0.05 -0.09,0.04 -0.08,0.04 -0.09,0.03 -0.09,0.03 -0.1,0.03 -0.1,0.02 -0.1,0.01 -0.1,0.02 -0.11,0 -0.11,0.01 c -1.16,0 -2.64,-1.16 -2.64,-2.64 0,-1 0.69,-1.8 1.84,-1.8 1.35,0 2.69,1.3 2.69,2.64 z"
           inkscape:connector-curvature="0"
           style="fill:#000000;stroke-width:0" /><path
           id="path4261"
           d="m 465.29,403.71 -0.1,-0.35 -0.1,-0.35 -0.11,-0.34 -0.12,-0.33 -0.12,-0.33 -0.14,-0.32 -0.14,-0.31 -0.14,-0.3 -0.16,-0.3 -0.16,-0.29 -0.16,-0.28 -0.18,-0.26 -0.18,-0.26 -0.18,-0.25 -0.2,-0.24 -0.19,-0.23 -0.2,-0.22 -0.21,-0.2 -0.21,-0.19 -0.22,-0.19 -0.22,-0.16 -0.23,-0.16 -0.23,-0.14 -0.23,-0.13 -0.24,-0.12 -0.24,-0.1 -0.25,-0.08 -0.25,-0.08 -0.25,-0.05 -0.25,-0.04 -0.26,-0.03 -0.26,-0.01 c -0.3,0 -1.05,0 -1.95,0.46 1.5,0.36 2.25,1.64 2.25,2.64 0,0.79 -0.55,1.75 -1.89,1.75 -1.25,0 -2.69,-1.05 -2.69,-2.85 0,-2 1.98,-3.09 4.37,-3.09 3.49,0 8.13,2.64 9.38,7.58 l 4.58,18.23 c 0.25,1 0.25,1.69 0.25,1.85 0,2.84 -2.1,4.57 -4.58,4.57 -5.09,0 -7.92,-7.21 -7.92,-7.67 0,-0.5 0.48,-0.5 0.59,-0.5 0.45,0 0.5,0.07 0.89,1 1.25,3.05 3.55,6.08 6.28,6.08 0.71,0 1.6,-0.2 1.6,-2.28 0,-1.16 -0.16,-1.7 -0.35,-2.55 z"
           inkscape:connector-curvature="0"
           style="fill:#000000;stroke-width:0" /><path
           id="path4263"
           d="m 526.95,422.5 0.14,0 0.15,0 0.14,0 0.07,0.01 0.08,0 0.07,0.01 0.07,0.01 0.07,0.01 0.07,0.01 0.07,0.01 0.06,0.02 0.07,0.02 0.06,0.02 0.06,0.02 0.06,0.03 0.06,0.03 0.05,0.04 0.05,0.03 0.05,0.05 0.04,0.04 0.04,0.05 0.02,0.03 0.02,0.03 0.01,0.02 0.02,0.03 0.01,0.03 0.02,0.04 0.01,0.03 0.01,0.04 0.01,0.03 0.01,0.04 0,0.04 0.01,0.04 0,0.04 0.01,0.04 0,0.04 0,0.05 c 0,1 -0.95,1 -1.64,1 h -29.84 c -0.71,0 -1.64,0 -1.64,-1 0,-0.98 0.93,-0.98 1.68,-0.98 z"
           inkscape:connector-curvature="0"
           style="fill:#000000;stroke-width:0" /><path
           id="path4265"
           d="m 527,412.82 0.07,0 0.06,0 0.14,0.01 0.14,0 0.07,0 0.07,0.01 0.07,0.01 0.07,0 0.06,0.01 0.07,0.02 0.07,0.01 0.06,0.02 0.07,0.02 0.06,0.02 0.06,0.02 0.06,0.03 0.05,0.03 0.05,0.04 0.05,0.04 0.05,0.04 0.04,0.05 0.02,0.02 0.02,0.03 0.02,0.02 0.02,0.03 0.01,0.03 0.02,0.03 0.01,0.03 0.02,0.03 0.01,0.04 0.01,0.03 0.01,0.04 0.01,0.04 0,0.04 0.01,0.04 0,0.04 0.01,0.04 0,0.05 0,0.04 c 0,1 -0.95,1 -1.69,1 H 497.2 c -0.75,0 -1.68,0 -1.68,-1 0,-1 0.93,-1 1.64,-1 z"
           inkscape:connector-curvature="0"
           style="fill:#000000;stroke-width:0" /></g>    </g>
    <g
       id="g4345"
       transform="translate(-38.172232,713.85765)">
      <g
         id="g4347"
         transform="matrix(0.53149606,0,0,-0.53149606,-93.01181,393.30707)"
         xml:space="preserve"
         stroke-miterlimit="10.433"
         font-style="normal"
         font-variant="normal"
         font-weight="normal"
         font-stretch="normal"
         font-size-adjust="none"
         letter-spacing="normal"
         word-spacing="normal"
         style="font-style:normal;font-variant:normal;font-weight:normal;font-stretch:normal;letter-spacing:normal;word-spacing:normal;text-anchor:start;fill:none;stroke:#000000;stroke-linecap:butt;stroke-linejoin:miter;stroke-miterlimit:10.43299961;stroke-opacity:1;stroke-dasharray:none;stroke-dashoffset:0"><path
           d="m 470.16,438.09 0,0.05 0,0.06 0,0.05 0,0.05 0,0.05 0,0.05 0,0.04 0,0.05 0,0.04 0,0.04 -0.01,0.04 0,0.04 0,0.04 0,0.03 0,0.04 -0.01,0.03 -0.01,0.07 0,0.06 -0.02,0.05 -0.01,0.05 -0.02,0.05 -0.02,0.04 -0.02,0.04 -0.02,0.03 -0.03,0.03 -0.03,0.03 -0.04,0.03 -0.04,0.02 -0.04,0.02 -0.03,0.01 -0.02,0.01 -0.03,0 -0.02,0.01 -0.03,0.01 -0.03,0 -0.03,0.01 -0.03,0 -0.04,0.01 -0.03,0 -0.04,0 -0.03,0.01 -0.04,0 -0.04,0 -0.05,0 -0.04,0 -0.04,0 -0.05,0.01 -0.05,0 -0.05,0 -0.05,0 -0.05,0 c -3.09,-3.19 -7.47,-3.19 -9.06,-3.19 v -1.55 c 1,0 3.93,0 6.51,1.3 v -25.81 c 0,-1.8 -0.14,-2.39 -4.62,-2.39 h -1.6 v -1.55 c 1.75,0.16 6.08,0.16 8.07,0.16 2,0 6.32,0 8.07,-0.16 v 1.55 h -1.59 c -4.48,0 -4.64,0.54 -4.64,2.39 z"
           id="path4349"
           inkscape:connector-curvature="0"
           style="fill:#000000;stroke-width:0" /></g>    </g>
    <g
       id="g4435"
       transform="translate(34.32777,713.85764)">
      <g
         word-spacing="normal"
         letter-spacing="normal"
         font-size-adjust="none"
         font-stretch="normal"
         font-weight="normal"
         font-variant="normal"
         font-style="normal"
         stroke-miterlimit="10.433"
         xml:space="preserve"
         transform="matrix(0.53149606,0,0,-0.53149606,-93.01181,393.30707)"
         id="g4437"
         style="font-style:normal;font-variant:normal;font-weight:normal;font-stretch:normal;letter-spacing:normal;word-spacing:normal;text-anchor:start;fill:none;stroke:#000000;stroke-linecap:butt;stroke-linejoin:miter;stroke-miterlimit:10.43299961;stroke-opacity:1;stroke-dasharray:none;stroke-dashoffset:0"><path
           id="path4439"
           d="m 461.85,410.04 5.28,5.13 c 7.76,6.87 10.76,9.56 10.76,14.54 0,5.69 -4.48,9.68 -10.56,9.68 -5.64,0 -9.33,-4.6 -9.33,-9.03 0,-2.79 2.5,-2.79 2.64,-2.79 0.86,0 2.6,0.6 2.6,2.64 0,1.3 -0.89,2.6 -2.64,2.6 -0.39,0 -0.5,0 -0.64,-0.05 1.14,3.24 3.83,5.08 6.72,5.08 4.53,0 6.68,-4.05 6.68,-8.13 0,-3.98 -2.5,-7.92 -5.23,-11.01 l -9.56,-10.66 C 458,407.5 458,407.4 458,406.2 h 18.49 l 1.4,8.67 h -1.25 c -0.25,-1.5 -0.59,-3.69 -1.09,-4.44 -0.36,-0.39 -3.64,-0.39 -4.73,-0.39 z"
           inkscape:connector-curvature="0"
           style="fill:#000000;stroke-width:0" /></g>    </g>
    <g
       id="g4531"
       transform="translate(308.97063,714.21479)">
      <g
         id="g4533"
         transform="matrix(0.53149606,0,0,-0.53149606,-93.01181,393.30707)"
         xml:space="preserve"
         stroke-miterlimit="10.433"
         font-style="normal"
         font-variant="normal"
         font-weight="normal"
         font-stretch="normal"
         font-size-adjust="none"
         letter-spacing="normal"
         word-spacing="normal"
         style="font-style:normal;font-variant:normal;font-weight:normal;font-stretch:normal;letter-spacing:normal;word-spacing:normal;text-anchor:start;fill:none;stroke:#000000;stroke-linecap:butt;stroke-linejoin:miter;stroke-miterlimit:10.43299961;stroke-opacity:1;stroke-dasharray:none;stroke-dashoffset:0"><path
           d="m 493.19,435 0.1,0.37 0.05,0.18 0.06,0.17 0.06,0.18 0.07,0.17 0.07,0.16 0.08,0.16 0.08,0.16 0.09,0.16 0.1,0.15 0.1,0.14 0.12,0.14 0.12,0.14 0.13,0.13 0.15,0.12 0.15,0.12 0.16,0.11 0.18,0.11 0.18,0.11 0.2,0.09 0.21,0.09 0.23,0.09 0.23,0.07 0.26,0.07 0.26,0.07 0.28,0.05 0.3,0.05 0.31,0.04 0.33,0.04 0.35,0.03 0.18,0.01 0.19,0 c 0.25,0 0.84,0.05 0.84,1 0,0.05 0,0.55 -0.64,0.55 -1.66,0 -3.39,-0.16 -5.03,-0.16 -1.7,0 -3.44,0.16 -5.1,0.16 -0.29,0 -0.89,0 -0.89,-1 0,-0.55 0.5,-0.55 0.89,-0.55 2.85,-0.04 3.4,-1.09 3.4,-2.18 0,-0.16 -0.1,-0.91 -0.15,-1.05 l -5.57,-22.17 -11.02,26 c -0.41,0.9 -0.45,0.95 -1.59,0.95 h -6.67 c -1,0 -1.46,0 -1.46,-1 0,-0.55 0.46,-0.55 1.39,-0.55 0.25,0 3.39,0 3.39,-0.45 l -6.67,-26.75 c -0.5,-2 -1.34,-3.59 -5.37,-3.73 -0.32,0 -0.86,-0.05 -0.86,-1 0,-0.35 0.25,-0.55 0.65,-0.55 1.6,0 3.33,0.16 4.99,0.16 1.69,0 3.48,-0.16 5.12,-0.16 0.25,0 0.89,0 0.89,1 0,0.5 -0.43,0.55 -0.98,0.55 -2.89,0.09 -3.3,1.18 -3.3,2.18 0,0.35 0.05,0.6 0.21,1.14 l 6.57,26.32 c 0.21,-0.3 0.21,-0.39 0.46,-0.89 l 12.4,-29.35 c 0.35,-0.86 0.49,-0.95 0.94,-0.95 0.55,0 0.55,0.16 0.8,1.05 z"
           id="path4535"
           inkscape:connector-curvature="0"
           style="fill:#000000;stroke-width:0" /></g>    </g>
    <g
       id="g4633"
       transform="translate(161.82777,713.14336)">
      <g
         word-spacing="normal"
         letter-spacing="normal"
         font-size-adjust="none"
         font-stretch="normal"
         font-weight="normal"
         font-variant="normal"
         font-style="normal"
         stroke-miterlimit="10.433"
         xml:space="preserve"
         transform="matrix(0.53149606,0,0,-0.53149606,-93.01181,393.30707)"
         id="g4635"
         style="font-style:normal;font-variant:normal;font-weight:normal;font-stretch:normal;letter-spacing:normal;word-spacing:normal;text-anchor:start;fill:none;stroke:#000000;stroke-linecap:butt;stroke-linejoin:miter;stroke-miterlimit:10.43299961;stroke-opacity:1;stroke-dasharray:none;stroke-dashoffset:0"><path
           id="path4637"
           d="m 465.08,408.84 0,0.13 -0.01,0.14 -0.02,0.13 -0.02,0.13 -0.03,0.12 -0.04,0.13 -0.04,0.12 -0.05,0.12 -0.05,0.12 -0.06,0.11 -0.06,0.11 -0.07,0.11 -0.07,0.1 -0.08,0.1 -0.09,0.1 -0.08,0.09 -0.1,0.09 -0.09,0.08 -0.1,0.08 -0.1,0.07 -0.11,0.07 -0.11,0.07 -0.12,0.06 -0.11,0.05 -0.12,0.05 -0.13,0.04 -0.12,0.04 -0.13,0.03 -0.13,0.02 -0.13,0.02 -0.13,0.01 -0.14,0 c -1.44,0 -2.64,-1.2 -2.64,-2.64 0,-1.44 1.2,-2.64 2.64,-2.64 1.45,0 2.64,1.2 2.64,2.64 z"
           inkscape:connector-curvature="0"
           style="fill:#000000;stroke-width:0" /><path
           id="path4639"
           d="m 478.88,408.84 0,0.13 -0.01,0.14 -0.02,0.13 -0.02,0.13 -0.03,0.12 -0.04,0.13 -0.04,0.12 -0.05,0.12 -0.05,0.12 -0.06,0.11 -0.06,0.11 -0.07,0.11 -0.08,0.1 -0.08,0.1 -0.08,0.1 -0.09,0.09 -0.09,0.09 -0.09,0.08 -0.1,0.08 -0.11,0.07 -0.11,0.07 -0.11,0.07 -0.11,0.06 -0.12,0.05 -0.12,0.05 -0.12,0.04 -0.12,0.04 -0.13,0.03 -0.13,0.02 -0.13,0.02 -0.14,0.01 -0.13,0 c -1.44,0 -2.64,-1.2 -2.64,-2.64 0,-1.44 1.2,-2.64 2.64,-2.64 1.45,0 2.64,1.2 2.64,2.64 z"
           inkscape:connector-curvature="0"
           style="fill:#000000;stroke-width:0" /><path
           id="path4641"
           d="m 492.68,408.84 -0.01,0.13 -0.01,0.14 -0.01,0.13 -0.03,0.13 -0.03,0.12 -0.03,0.13 -0.04,0.12 -0.05,0.12 -0.06,0.12 -0.05,0.11 -0.07,0.11 -0.07,0.11 -0.07,0.1 -0.08,0.1 -0.08,0.1 -0.09,0.09 -0.09,0.09 -0.1,0.08 -0.1,0.08 -0.1,0.07 -0.11,0.07 -0.11,0.07 -0.11,0.06 -0.12,0.05 -0.12,0.05 -0.12,0.04 -0.13,0.04 -0.12,0.03 -0.13,0.02 -0.14,0.02 -0.13,0.01 -0.13,0 c -1.44,0 -2.65,-1.2 -2.65,-2.64 0,-1.44 1.21,-2.64 2.65,-2.64 1.45,0 2.64,1.2 2.64,2.64 z"
           inkscape:connector-curvature="0"
           style="fill:#000000;stroke-width:0" /></g>    </g>
    <rect
       ry="15.078585"
       y="772.14752"
       x="88.463234"
       height="30.157169"
       width="53.776772"
       id="rect3980-24"
       style="fill:#ffffff;fill-opacity:1;stroke:#000000;stroke-width:0.59048998;stroke-miterlimit:4;stroke-opacity:1;stroke-dasharray:none;stroke-dashoffset:0" />
    <rect
       ry="15.078585"
       y="771.91846"
       x="160.06015"
       height="30.157169"
       width="53.776772"
       id="rect3980-9-3"
       style="fill:#ffffff;fill-opacity:1;stroke:#000000;stroke-width:0.59048998;stroke-miterlimit:4;stroke-opacity:1;stroke-dasharray:none;stroke-dashoffset:0" />
    <path
       style="fill:none;stroke:#000000;stroke-width:1px;stroke-linecap:butt;stroke-linejoin:miter;stroke-opacity:1"
       d="m 101.52033,106.37712 26.26397,0"
       id="path4854"
       inkscape:connector-curvature="0"
       transform="translate(0,680.31491)" />
    <path
       transform="matrix(0.59049,0,0,0.59049,64.421854,705.77374)"
       d="m 71.72083,137.18677 c 0,4.74208 -3.844216,8.58629 -8.586297,8.58629 -4.742081,0 -8.586297,-3.84421 -8.586297,-8.58629 0,-4.74208 3.844216,-8.5863 8.586297,-8.5863 4.742081,0 8.586297,3.84422 8.586297,8.5863 z"
       sodipodi:ry="8.586297"
       sodipodi:rx="8.586297"
       sodipodi:cy="137.18677"
       sodipodi:cx="63.134533"
       id="path3192-0"
       style="fill:#000000;fill-opacity:1;stroke:none"
       sodipodi:type="arc" />
    <rect
       ry="15.078585"
       y="771.81714"
       x="228.9958"
       height="30.157169"
       width="53.776772"
       id="rect3980-2-8"
       style="fill:#ffffff;fill-opacity:1;stroke:#000000;stroke-width:0.59048998;stroke-miterlimit:4;stroke-opacity:1;stroke-dasharray:none;stroke-dashoffset:0" />
    <rect
       ry="15.078585"
       y="771.58813"
       x="300.59268"
       height="30.157169"
       width="53.776772"
       id="rect3980-9-1-2"
       style="fill:#ffffff;fill-opacity:1;stroke:#000000;stroke-width:0.59048998;stroke-miterlimit:4;stroke-opacity:1;stroke-dasharray:none;stroke-dashoffset:0" />
    <rect
       ry="15.078585"
       y="772.4425"
       x="370.44882"
       height="30.157169"
       width="53.776772"
       id="rect3980-5-2"
       style="fill:#ffffff;fill-opacity:1;stroke:#000000;stroke-width:0.59048998;stroke-miterlimit:4;stroke-opacity:1;stroke-dasharray:none;stroke-dashoffset:0" />
    <rect
       ry="15.078585"
       y="772.21344"
       x="442.04572"
       height="30.157169"
       width="53.776772"
       id="rect3980-9-9-1"
       style="fill:#ffffff;fill-opacity:1;stroke:#000000;stroke-width:0.59048998;stroke-miterlimit:4;stroke-opacity:1;stroke-dasharray:none;stroke-dashoffset:0" />
    <path
       d="m 71.72083,137.18677 c 0,4.74208 -3.844216,8.58629 -8.586297,8.58629 -4.742081,0 -8.586297,-3.84421 -8.586297,-8.58629 0,-4.74208 3.844216,-8.5863 8.586297,-8.5863 4.742081,0 8.586297,3.84422 8.586297,8.5863 z"
       sodipodi:ry="8.586297"
       sodipodi:rx="8.586297"
       sodipodi:cy="137.18677"
       sodipodi:cx="63.134533"
       id="path3192-4-79"
       style="fill:#ffffff;fill-opacity:1;stroke:#000000;stroke-opacity:1"
       sodipodi:type="arc"
       transform="matrix(0.59049,0,0,0.59049,90.616024,705.92066)" />
    <path
       d="m 71.72083,137.18677 c 0,4.74208 -3.844216,8.58629 -8.586297,8.58629 -4.742081,0 -8.586297,-3.84421 -8.586297,-8.58629 0,-4.74208 3.844216,-8.5863 8.586297,-8.5863 4.742081,0 8.586297,3.84422 8.586297,8.5863 z"
       sodipodi:ry="8.586297"
       sodipodi:rx="8.586297"
       sodipodi:cy="137.18677"
       sodipodi:cx="63.134533"
       id="path3192-3-5"
       style="fill:#000000;fill-opacity:1;stroke:none"
       sodipodi:type="arc"
       transform="matrix(0.59049,0,0,0.59049,136.01878,705.54477)" />
    <path
       style="fill:none;stroke:#000000;stroke-width:1px;stroke-linecap:butt;stroke-linejoin:miter;stroke-opacity:1"
       d="m 173.24116,786.69203 26.26397,0"
       id="path4854-3"
       inkscape:connector-curvature="0" />
    <path
       d="m 71.72083,137.18677 c 0,4.74208 -3.844216,8.58629 -8.586297,8.58629 -4.742081,0 -8.586297,-3.84421 -8.586297,-8.58629 0,-4.74208 3.844216,-8.5863 8.586297,-8.5863 4.742081,0 8.586297,3.84422 8.586297,8.5863 z"
       sodipodi:ry="8.586297"
       sodipodi:rx="8.586297"
       sodipodi:cy="137.18677"
       sodipodi:cx="63.134533"
       id="path3192-4-7-2"
       style="fill:#ffffff;fill-opacity:1;stroke:#000000;stroke-opacity:1"
       sodipodi:type="arc"
       transform="matrix(0.59049,0,0,0.59049,162.21295,705.69169)" />
    <path
       d="m 71.72083,137.18677 c 0,4.74208 -3.844216,8.58629 -8.586297,8.58629 -4.742081,0 -8.586297,-3.84421 -8.586297,-8.58629 0,-4.74208 3.844216,-8.5863 8.586297,-8.5863 4.742081,0 8.586297,3.84422 8.586297,8.5863 z"
       sodipodi:ry="8.586297"
       sodipodi:rx="8.586297"
       sodipodi:cy="137.18677"
       sodipodi:cx="63.134533"
       id="path3192-5-9"
       style="fill:#000000;fill-opacity:1;stroke:none"
       sodipodi:type="arc"
       transform="matrix(0.59049,0,0,0.59049,204.95442,705.44339)" />
    <path
       style="fill:none;stroke:#000000;stroke-width:1px;stroke-linecap:butt;stroke-linejoin:miter;stroke-opacity:1"
       d="m 242.94169,786.69204 26.26397,0"
       id="path4854-3-4"
       inkscape:connector-curvature="0" />
    <path
       d="m 71.72083,137.18677 c 0,4.74208 -3.844216,8.58629 -8.586297,8.58629 -4.742081,0 -8.586297,-3.84421 -8.586297,-8.58629 0,-4.74208 3.844216,-8.5863 8.586297,-8.5863 4.742081,0 8.586297,3.84422 8.586297,8.5863 z"
       sodipodi:ry="8.586297"
       sodipodi:rx="8.586297"
       sodipodi:cy="137.18677"
       sodipodi:cx="63.134533"
       id="path3192-4-8-0"
       style="fill:#ffffff;fill-opacity:1;stroke:#000000;stroke-opacity:1"
       sodipodi:type="arc"
       transform="matrix(0.59049,0,0,0.59049,231.14859,705.59033)" />
    <path
       d="m 71.72083,137.18677 c 0,4.74208 -3.844216,8.58629 -8.586297,8.58629 -4.742081,0 -8.586297,-3.84421 -8.586297,-8.58629 0,-4.74208 3.844216,-8.5863 8.586297,-8.5863 4.742081,0 8.586297,3.84422 8.586297,8.5863 z"
       sodipodi:ry="8.586297"
       sodipodi:rx="8.586297"
       sodipodi:cy="137.18677"
       sodipodi:cx="63.134533"
       id="path3192-3-1-5"
       style="fill:#000000;fill-opacity:1;stroke:none"
       sodipodi:type="arc"
       transform="matrix(0.59049,0,0,0.59049,276.55133,705.21443)" />
    <path
       style="fill:none;stroke:#000000;stroke-width:1px;stroke-linecap:butt;stroke-linejoin:miter;stroke-opacity:1"
       d="m 314.66252,786.69203 26.26397,0"
       id="path4854-3-2"
       inkscape:connector-curvature="0" />
    <path
       d="m 71.72083,137.18677 c 0,4.74208 -3.844216,8.58629 -8.586297,8.58629 -4.742081,0 -8.586297,-3.84421 -8.586297,-8.58629 0,-4.74208 3.844216,-8.5863 8.586297,-8.5863 4.742081,0 8.586297,3.84422 8.586297,8.5863 z"
       sodipodi:ry="8.586297"
       sodipodi:rx="8.586297"
       sodipodi:cy="137.18677"
       sodipodi:cx="63.134533"
       id="path3192-4-7-1-0"
       style="fill:#ffffff;fill-opacity:1;stroke:#000000;stroke-opacity:1"
       sodipodi:type="arc"
       transform="matrix(0.59049,0,0,0.59049,302.74551,705.36137)" />
    <path
       transform="matrix(0.59049,0,0,0.59049,346.40744,706.06873)"
       d="m 71.72083,137.18677 c 0,4.74208 -3.844216,8.58629 -8.586297,8.58629 -4.742081,0 -8.586297,-3.84421 -8.586297,-8.58629 0,-4.74208 3.844216,-8.5863 8.586297,-8.5863 4.742081,0 8.586297,3.84422 8.586297,8.5863 z"
       sodipodi:ry="8.586297"
       sodipodi:rx="8.586297"
       sodipodi:cy="137.18677"
       sodipodi:cx="63.134533"
       id="path3192-8-1"
       style="fill:#000000;fill-opacity:1;stroke:none"
       sodipodi:type="arc" />
    <path
       style="fill:none;stroke:#000000;stroke-width:1px;stroke-linecap:butt;stroke-linejoin:miter;stroke-opacity:1"
       d="m 384.61558,787.1971 26.26397,0"
       id="path4854-3-7"
       inkscape:connector-curvature="0" />
    <path
       d="m 71.72083,137.18677 c 0,4.74208 -3.844216,8.58629 -8.586297,8.58629 -4.742081,0 -8.586297,-3.84421 -8.586297,-8.58629 0,-4.74208 3.844216,-8.5863 8.586297,-8.5863 4.742081,0 8.586297,3.84422 8.586297,8.5863 z"
       sodipodi:ry="8.586297"
       sodipodi:rx="8.586297"
       sodipodi:cy="137.18677"
       sodipodi:cx="63.134533"
       id="path3192-4-73-3"
       style="fill:#ffffff;fill-opacity:1;stroke:#000000;stroke-opacity:1"
       sodipodi:type="arc"
       transform="matrix(0.59049,0,0,0.59049,372.60161,706.21565)" />
    <path
       d="m 71.72083,137.18677 c 0,4.74208 -3.844216,8.58629 -8.586297,8.58629 -4.742081,0 -8.586297,-3.84421 -8.586297,-8.58629 0,-4.74208 3.844216,-8.5863 8.586297,-8.5863 4.742081,0 8.586297,3.84422 8.586297,8.5863 z"
       sodipodi:ry="8.586297"
       sodipodi:rx="8.586297"
       sodipodi:cy="137.18677"
       sodipodi:cx="63.134533"
       id="path3192-3-4-9"
       style="fill:#000000;fill-opacity:1;stroke:none"
       sodipodi:type="arc"
       transform="matrix(0.59049,0,0,0.59049,418.00436,705.83976)" />
    <path
       style="fill:none;stroke:#000000;stroke-width:1px;stroke-linecap:butt;stroke-linejoin:miter;stroke-opacity:1"
       d="m 456.08388,787.19711 26.26397,0"
       id="path4854-3-9"
       inkscape:connector-curvature="0" />
    <path
       d="m 71.72083,137.18677 c 0,4.74208 -3.844216,8.58629 -8.586297,8.58629 -4.742081,0 -8.586297,-3.84421 -8.586297,-8.58629 0,-4.74208 3.844216,-8.5863 8.586297,-8.5863 4.742081,0 8.586297,3.84422 8.586297,8.5863 z"
       sodipodi:ry="8.586297"
       sodipodi:rx="8.586297"
       sodipodi:cy="137.18677"
       sodipodi:cx="63.134533"
       id="path3192-4-7-9-6"
       style="fill:#ffffff;fill-opacity:1;stroke:#000000;stroke-opacity:1"
       sodipodi:type="arc"
       transform="matrix(0.59049,0,0,0.59049,444.19853,705.98668)" />
    <rect
       ry="15.078585"
       y="826.55573"
       x="89.177521"
       height="30.157169"
       width="53.776772"
       id="rect3980-3"
       style="fill:#ffffff;fill-opacity:1;stroke:#000000;stroke-width:0.59048998;stroke-miterlimit:4;stroke-opacity:1;stroke-dasharray:none;stroke-dashoffset:0" />
    <rect
       ry="15.078585"
       y="826.32666"
       x="160.77443"
       height="30.157169"
       width="53.776772"
       id="rect3980-9-4"
       style="fill:#ffffff;fill-opacity:1;stroke:#000000;stroke-width:0.59048998;stroke-miterlimit:4;stroke-opacity:1;stroke-dasharray:none;stroke-dashoffset:0" />
    <path
       transform="matrix(0.59049,0,0,0.59049,65.136139,760.18199)"
       d="m 71.72083,137.18677 c 0,4.74208 -3.844216,8.58629 -8.586297,8.58629 -4.742081,0 -8.586297,-3.84421 -8.586297,-8.58629 0,-4.74208 3.844216,-8.5863 8.586297,-8.5863 4.742081,0 8.586297,3.84422 8.586297,8.5863 z"
       sodipodi:ry="8.586297"
       sodipodi:rx="8.586297"
       sodipodi:cy="137.18677"
       sodipodi:cx="63.134533"
       id="path3192-37"
       style="fill:#000000;fill-opacity:1;stroke:none"
       sodipodi:type="arc" />
    <rect
       ry="15.078585"
       y="826.22534"
       x="229.7101"
       height="30.157169"
       width="53.776772"
       id="rect3980-2-7"
       style="fill:#ffffff;fill-opacity:1;stroke:#000000;stroke-width:0.59048998;stroke-miterlimit:4;stroke-opacity:1;stroke-dasharray:none;stroke-dashoffset:0" />
    <rect
       ry="15.078585"
       y="825.99634"
       x="301.30698"
       height="30.157169"
       width="53.776772"
       id="rect3980-9-1-3"
       style="fill:#ffffff;fill-opacity:1;stroke:#000000;stroke-width:0.59048998;stroke-miterlimit:4;stroke-opacity:1;stroke-dasharray:none;stroke-dashoffset:0" />
    <rect
       ry="15.078585"
       y="826.85071"
       x="371.16309"
       height="30.157169"
       width="53.776772"
       id="rect3980-5-8"
       style="fill:#ffffff;fill-opacity:1;stroke:#000000;stroke-width:0.59048998;stroke-miterlimit:4;stroke-opacity:1;stroke-dasharray:none;stroke-dashoffset:0" />
    <rect
       ry="15.078585"
       y="826.62164"
       x="442.75998"
       height="30.157169"
       width="53.776772"
       id="rect3980-9-9-9"
       style="fill:#ffffff;fill-opacity:1;stroke:#000000;stroke-width:0.59048998;stroke-miterlimit:4;stroke-opacity:1;stroke-dasharray:none;stroke-dashoffset:0" />
    <path
       style="fill:none;stroke:#000000;stroke-width:1px;stroke-linecap:butt;stroke-linejoin:miter;stroke-opacity:1"
       d="m 129.29952,841.24027 43.94164,0"
       id="path4854-3-74"
       inkscape:connector-curvature="0"
       sodipodi:nodetypes="cc" />
    <path
       d="m 71.72083,137.18677 c 0,4.74208 -3.844216,8.58629 -8.586297,8.58629 -4.742081,0 -8.586297,-3.84421 -8.586297,-8.58629 0,-4.74208 3.844216,-8.5863 8.586297,-8.5863 4.742081,0 8.586297,3.84422 8.586297,8.5863 z"
       sodipodi:ry="8.586297"
       sodipodi:rx="8.586297"
       sodipodi:cy="137.18677"
       sodipodi:cx="63.134533"
       id="path3192-4-9"
       style="fill:#ffffff;fill-opacity:1;stroke:#000000;stroke-opacity:1"
       sodipodi:type="arc"
       transform="matrix(0.59049,0,0,0.59049,91.330309,760.32891)" />
    <path
       d="m 71.72083,137.18677 c 0,4.74208 -3.844216,8.58629 -8.586297,8.58629 -4.742081,0 -8.586297,-3.84421 -8.586297,-8.58629 0,-4.74208 3.844216,-8.5863 8.586297,-8.5863 4.742081,0 8.586297,3.84422 8.586297,8.5863 z"
       sodipodi:ry="8.586297"
       sodipodi:rx="8.586297"
       sodipodi:cy="137.18677"
       sodipodi:cx="63.134533"
       id="path3192-3-7"
       style="fill:#000000;fill-opacity:1;stroke:none"
       sodipodi:type="arc"
       transform="matrix(0.59049,0,0,0.59049,136.73306,759.95302)" />
    <path
       style="fill:none;stroke:#000000;stroke-width:1px;stroke-linecap:butt;stroke-linejoin:miter;stroke-opacity:1"
       d="m 199.45775,841.29072 43.94164,0"
       id="path4854-3-74-8"
       inkscape:connector-curvature="0"
       sodipodi:nodetypes="cc" />
    <path
       d="m 71.72083,137.18677 c 0,4.74208 -3.844216,8.58629 -8.586297,8.58629 -4.742081,0 -8.586297,-3.84421 -8.586297,-8.58629 0,-4.74208 3.844216,-8.5863 8.586297,-8.5863 4.742081,0 8.586297,3.84422 8.586297,8.5863 z"
       sodipodi:ry="8.586297"
       sodipodi:rx="8.586297"
       sodipodi:cy="137.18677"
       sodipodi:cx="63.134533"
       id="path3192-4-7-6"
       style="fill:#ffffff;fill-opacity:1;stroke:#000000;stroke-opacity:1"
       sodipodi:type="arc"
       transform="matrix(0.59049,0,0,0.59049,162.92723,760.09994)" />
    <path
       style="fill:none;stroke:#000000;stroke-width:1px;stroke-linecap:butt;stroke-linejoin:miter;stroke-opacity:1"
       d="m 269.8149,841.11215 43.94164,0"
       id="path4854-3-74-3"
       inkscape:connector-curvature="0"
       sodipodi:nodetypes="cc" />
    <path
       d="m 71.72083,137.18677 c 0,4.74208 -3.844216,8.58629 -8.586297,8.58629 -4.742081,0 -8.586297,-3.84421 -8.586297,-8.58629 0,-4.74208 3.844216,-8.5863 8.586297,-8.5863 4.742081,0 8.586297,3.84422 8.586297,8.5863 z"
       sodipodi:ry="8.586297"
       sodipodi:rx="8.586297"
       sodipodi:cy="137.18677"
       sodipodi:cx="63.134533"
       id="path3192-5-0"
       style="fill:#000000;fill-opacity:1;stroke:none"
       sodipodi:type="arc"
       transform="matrix(0.59049,0,0,0.59049,205.66871,759.85164)" />
    <path
       style="fill:none;stroke:#000000;stroke-width:1px;stroke-linecap:butt;stroke-linejoin:miter;stroke-opacity:1"
       d="m 340.35061,840.93358 43.94164,0"
       id="path4854-3-74-4"
       inkscape:connector-curvature="0"
       sodipodi:nodetypes="cc" />
    <path
       d="m 71.72083,137.18677 c 0,4.74208 -3.844216,8.58629 -8.586297,8.58629 -4.742081,0 -8.586297,-3.84421 -8.586297,-8.58629 0,-4.74208 3.844216,-8.5863 8.586297,-8.5863 4.742081,0 8.586297,3.84422 8.586297,8.5863 z"
       sodipodi:ry="8.586297"
       sodipodi:rx="8.586297"
       sodipodi:cy="137.18677"
       sodipodi:cx="63.134533"
       id="path3192-4-8-3"
       style="fill:#ffffff;fill-opacity:1;stroke:#000000;stroke-opacity:1"
       sodipodi:type="arc"
       transform="matrix(0.59049,0,0,0.59049,231.86288,759.99858)" />
    <path
       style="fill:none;stroke:#000000;stroke-width:1px;stroke-linecap:butt;stroke-linejoin:miter;stroke-opacity:1"
       d="m 411.60061,841.46929 43.94164,0"
       id="path4854-3-74-80"
       inkscape:connector-curvature="0"
       sodipodi:nodetypes="cc" />
    <path
       d="m 71.72083,137.18677 c 0,4.74208 -3.844216,8.58629 -8.586297,8.58629 -4.742081,0 -8.586297,-3.84421 -8.586297,-8.58629 0,-4.74208 3.844216,-8.5863 8.586297,-8.5863 4.742081,0 8.586297,3.84422 8.586297,8.5863 z"
       sodipodi:ry="8.586297"
       sodipodi:rx="8.586297"
       sodipodi:cy="137.18677"
       sodipodi:cx="63.134533"
       id="path3192-3-1-0"
       style="fill:#000000;fill-opacity:1;stroke:none"
       sodipodi:type="arc"
       transform="matrix(0.59049,0,0,0.59049,277.26562,759.62268)" />
    <path
       d="m 71.72083,137.18677 c 0,4.74208 -3.844216,8.58629 -8.586297,8.58629 -4.742081,0 -8.586297,-3.84421 -8.586297,-8.58629 0,-4.74208 3.844216,-8.5863 8.586297,-8.5863 4.742081,0 8.586297,3.84422 8.586297,8.5863 z"
       sodipodi:ry="8.586297"
       sodipodi:rx="8.586297"
       sodipodi:cy="137.18677"
       sodipodi:cx="63.134533"
       id="path3192-4-7-1-1"
       style="fill:#ffffff;fill-opacity:1;stroke:#000000;stroke-opacity:1"
       sodipodi:type="arc"
       transform="matrix(0.59049,0,0,0.59049,303.4598,759.76962)" />
    <path
       transform="matrix(0.59049,0,0,0.59049,347.12173,760.47698)"
       d="m 71.72083,137.18677 c 0,4.74208 -3.844216,8.58629 -8.586297,8.58629 -4.742081,0 -8.586297,-3.84421 -8.586297,-8.58629 0,-4.74208 3.844216,-8.5863 8.586297,-8.5863 4.742081,0 8.586297,3.84422 8.586297,8.5863 z"
       sodipodi:ry="8.586297"
       sodipodi:rx="8.586297"
       sodipodi:cy="137.18677"
       sodipodi:cx="63.134533"
       id="path3192-8-5"
       style="fill:#000000;fill-opacity:1;stroke:none"
       sodipodi:type="arc" />
    <path
       d="m 71.72083,137.18677 c 0,4.74208 -3.844216,8.58629 -8.586297,8.58629 -4.742081,0 -8.586297,-3.84421 -8.586297,-8.58629 0,-4.74208 3.844216,-8.5863 8.586297,-8.5863 4.742081,0 8.586297,3.84422 8.586297,8.5863 z"
       sodipodi:ry="8.586297"
       sodipodi:rx="8.586297"
       sodipodi:cy="137.18677"
       sodipodi:cx="63.134533"
       id="path3192-4-73-5"
       style="fill:#ffffff;fill-opacity:1;stroke:#000000;stroke-opacity:1"
       sodipodi:type="arc"
       transform="matrix(0.59049,0,0,0.59049,373.3159,760.6239)" />
    <path
       d="m 71.72083,137.18677 c 0,4.74208 -3.844216,8.58629 -8.586297,8.58629 -4.742081,0 -8.586297,-3.84421 -8.586297,-8.58629 0,-4.74208 3.844216,-8.5863 8.586297,-8.5863 4.742081,0 8.586297,3.84422 8.586297,8.5863 z"
       sodipodi:ry="8.586297"
       sodipodi:rx="8.586297"
       sodipodi:cy="137.18677"
       sodipodi:cx="63.134533"
       id="path3192-3-4-3"
       style="fill:#000000;fill-opacity:1;stroke:none"
       sodipodi:type="arc"
       transform="matrix(0.59049,0,0,0.59049,418.71865,760.24801)" />
    <path
       d="m 71.72083,137.18677 c 0,4.74208 -3.844216,8.58629 -8.586297,8.58629 -4.742081,0 -8.586297,-3.84421 -8.586297,-8.58629 0,-4.74208 3.844216,-8.5863 8.586297,-8.5863 4.742081,0 8.586297,3.84422 8.586297,8.5863 z"
       sodipodi:ry="8.586297"
       sodipodi:rx="8.586297"
       sodipodi:cy="137.18677"
       sodipodi:cx="63.134533"
       id="path3192-4-7-9-8"
       style="fill:#ffffff;fill-opacity:1;stroke:#000000;stroke-opacity:1"
       sodipodi:type="arc"
       transform="matrix(0.59049,0,0,0.59049,444.91282,760.39493)" />
  </g>
</svg>
